<?xml version="1.0" encoding="utf-8"?>
<!-- Generator: Adobe Illustrator 16.0.0, SVG Export Plug-In . SVG Version: 6.00 Build 0)  -->
<!DOCTYPE svg PUBLIC "-//W3C//DTD SVG 1.1//EN" "http://www.w3.org/Graphics/SVG/1.1/DTD/svg11.dtd">
<svg version="1.1" id="Layer_1" xmlns="http://www.w3.org/2000/svg" xmlns:xlink="http://www.w3.org/1999/xlink" x="0px" y="0px"
	 width="24px" height="24px" viewBox="0 0 24 24" enable-background="new 0 0 24 24" xml:space="preserve">
<path d="M21,22.85l-4.725-4.5l0.566,1.801H5.25C4.007,20.15,3,19.143,3,17.9V4.4c0-1.243,1.007-2.25,2.25-2.25h13.5
	C19.993,2.15,21,3.157,21,4.4V22.85 M12,7.37c-2.412,0-4.104,1.036-4.104,1.036C8.823,7.577,10.443,7.1,10.443,7.1L10.29,6.947
	c-1.521,0.026-2.898,1.08-2.898,1.08c-1.548,3.231-1.449,6.021-1.449,6.021c1.26,1.63,3.132,1.513,3.132,1.513l0.639-0.811
	c-1.125-0.242-1.836-1.242-1.836-1.242S9.57,14.66,12,14.66c2.43,0,4.122-1.152,4.122-1.152s-0.711,1-1.836,1.242l0.639,0.811
	c0,0,1.872,0.117,3.133-1.513c0,0,0.099-2.79-1.449-6.021c0,0-1.378-1.054-2.898-1.08L13.558,7.1c0,0,1.619,0.477,2.547,1.305
	C16.104,8.405,14.412,7.37,12,7.37 M10.137,10.781c0.585,0,1.062,0.513,1.053,1.143c0,0.621-0.468,1.143-1.053,1.143
	c-0.576,0-1.044-0.521-1.044-1.143C9.093,11.294,9.552,10.781,10.137,10.781 M13.89,10.781c0.585,0,1.053,0.513,1.053,1.143
	c0,0.621-0.468,1.143-1.053,1.143c-0.575,0-1.044-0.521-1.044-1.143C12.846,11.294,13.305,10.781,13.89,10.781z"/>
</svg>
