<svg xmlns="http://www.w3.org/2000/svg" width="24" height="24"><path d="M13.751 8.97L12 5.938 10.25 8.97zM13.751 15.031h3.499L15.499 12zM8.5 12l-1.75 3.031h3.5zM10.25 15.031L12 18.062l1.751-3.031zM15.499 12l1.751-3.03h-3.499zM10.25 8.97h-3.5L8.5 12zM6.75 8.97h-3.5L1.5 12l1.75 3.031h3.5L5 12zM6.75 15.031L5 18.062l1.75 3.032h3.5L12 18.062H8.5zM17.25 8.97l1.751-3.032-1.751-3.031h-3.499L12 5.938h3.499zM12 5.938l-1.75-3.031h-3.5L5 5.938 6.75 8.97l1.749-3.032zM12 18.062l1.751 3.032h3.499l1.751-3.032-1.751-3.031-1.75 3.031zM22.5 12l-1.751-3.03H17.25L19.001 12l-1.751 3.031h3.499z"/></svg>