<?xml version="1.0" encoding="utf-8"?>
<!-- Generator: Adobe Illustrator 16.0.0, SVG Export Plug-In . SVG Version: 6.00 Build 0)  -->
<!DOCTYPE svg PUBLIC "-//W3C//DTD SVG 1.1//EN" "http://www.w3.org/Graphics/SVG/1.1/DTD/svg11.dtd">
<svg version="1.1" id="Layer_1" xmlns="http://www.w3.org/2000/svg" xmlns:xlink="http://www.w3.org/1999/xlink" x="0px" y="0px"
	 width="140px" height="140px" viewBox="0 0 140 140" enable-background="new 0 0 140 140" xml:space="preserve">
<path d="M74.712,19.787c0,2.496-1.318,4.673-3.321,5.842v6.191l0.216,0.029l9.697,1.274c0.025,0,0.053,0,0.075,0.005l-0.022-0.063
	c0.022,0,0.035,0,0.047,0.005c0.016,0.003,0.027,0.019,0.058,0.048c1.688,0.851,18.393,15.563,18.393,37.34
	c0,21.142-6.615,25.302-9.569,27.157l-0.006,0.005c-0.367,0.23-0.678,0.427-0.912,0.616c-0.317,0.213-0.738,0.213-1.003-0.054
	l-0.199-0.195l-0.049-0.05c-1.59-1.569-5.362-5.289-13.19-6.394c-1.103-0.161-2.212-0.268-3.321-0.372l-0.214-0.015v15.364h18.554
	c4.482,0,8.172-3.188,9.064-7.384c0.055-0.318,0.372-0.584,0.742-0.584c9.016,0,17.917-2.035,26.038-5.958l1.63-0.786
	c0.578-0.292,1.261-0.208,1.769,0.151c0.461,0.332,0.813,0.873,0.813,1.443c0,0.636-0.372,1.274-1.005,1.594
	c-7.425,3.591-12.051,10.96-14.771,18.743c-1.23,3.526-2.816,6.883-4.707,10.031c-1.227,2.048-3.588,3.344-5.765,2.349l-3.374-1.489
	c-2.526-1.114-5.268-1.114-7.797,0l-3.372,1.489c-2.531,1.113-5.271,1.113-7.802,0l-3.372-1.489c-2.528-1.114-5.267-1.114-7.797,0
	l-3.375,1.489c-2.527,1.113-5.267,1.113-7.798,0l-3.373-1.489c-2.53-1.114-5.27-1.114-7.8,0l-3.373,1.489
	c-2.528,1.113-5.322,1.113-7.799,0l-3.373-1.489c-2.528-1.114-5.322-1.114-7.799,0l-3.109,1.384
	c-1.475,0.649-3.142-0.088-4.017-1.441C13.025,116.201,10,106.33,10,95.741c0-0.744,0-1.488,0.053-2.232
	c0-0.423,0.368-0.741,0.737-0.741h28.563c0.421,0,0.737,0.318,0.737,0.741v3.667c0,5.152,4.164,9.347,9.275,9.347h15.328V91.075
	c-3.485,0.167-6.352,0.581-8.056,0.841c-0.296,0.05-0.549-0.087-0.71-0.279l-0.029,0.021c-0.158-0.213-0.21-0.478-0.051-0.744
	c1.318-2.815,3.9-10.516,3.425-27.141c-0.528-18.006-6.799-29.691-9.223-33.516c-0.37-0.53,0.104-1.222,0.737-1.168l13.906,1.832
	v-5.322c-1.973-1.176-3.266-3.338-3.266-5.811c0-3.72,3.004-6.745,6.693-6.745S74.712,16.067,74.712,19.787z M51.212,85.963V56.75
	c0-0.267-0.159-0.586-0.42-0.692l-13.229-6.213c-0.369-0.159-0.842,0-1,0.425L22.86,85.643c-0.211,0.532,0.158,1.064,0.685,1.064
	h26.928C50.897,86.706,51.212,86.39,51.212,85.963z"/>
</svg>
