<svg version="1.1" id="Layer_1" xmlns="http://www.w3.org/2000/svg" xmlns:xlink="http://www.w3.org/1999/xlink" x="0px" y="0px"
	 width="612px" height="792px" viewBox="0 0 612 792" enable-background="new 0 0 612 792" xml:space="preserve">
<path d="M306,90L40.966,243v306L306,702l264.996-153l0.038-306L306,90z M394.473,277.272c5.775-10.098,13.961-18.972,24.709-25.168
	c32.551-18.781,74.129-7.612,92.909,24.901c18.781,32.551,7.65,74.09-24.9,92.871c-10.748,6.235-22.529,8.836-34.119,8.798
	l0.153,0.306H335.452l58.905-102.013L394.473,277.272z M306,157.97c37.562,0,68.009,30.447,68.009,68.008
	c0,12.432-3.596,23.945-9.41,34.004h0.307L306,361.996l-58.905-102.013h0.344c-5.853-10.021-9.448-21.535-9.448-34.004
	C238.03,188.417,268.477,158.008,306,157.97z M99.871,277.004c18.781-32.513,60.359-43.682,92.909-24.901
	c10.787,6.196,18.972,15.07,24.748,25.168l0.115-0.268l58.905,102.013h-117.81l0.153-0.306c-11.59,0.038-23.371-2.601-34.119-8.836
	C92.221,351.095,81.09,309.517,99.871,277.004z M217.528,514.728c-5.776,10.061-13.961,18.896-24.709,25.131
	c-32.551,18.742-74.128,7.611-92.909-24.862c-18.819-32.551-7.65-74.091,24.862-92.871c10.787-6.235,22.529-8.874,34.119-8.836
	l-0.153-0.306h117.81l-58.905,102.013L217.528,514.728z M306,634.029c-37.523-0.038-67.97-30.446-67.97-68.008
	c0-12.432,3.595-23.944,9.448-34.005h-0.382L306,430.004l58.905,101.975h-0.345c5.853,10.06,9.448,21.573,9.448,34.043
	C373.971,603.545,343.562,634.029,306,634.029z M512.129,514.996c-18.78,32.551-60.358,43.643-92.909,24.862
	c-10.786-6.196-18.972-15.109-24.709-25.169l-0.153,0.268l-58.905-101.974h117.811l-0.153,0.268
	c11.628-0.038,23.371,2.601,34.157,8.836C519.779,440.905,530.91,482.483,512.129,514.996z"/>
</svg>
