<?xml version="1.0" encoding="utf-8"?>
<!-- Generator: Adobe Illustrator 16.0.0, SVG Export Plug-In . SVG Version: 6.00 Build 0)  -->
<!DOCTYPE svg PUBLIC "-//W3C//DTD SVG 1.1//EN" "http://www.w3.org/Graphics/SVG/1.1/DTD/svg11.dtd">
<svg version="1.1" id="Layer_1" xmlns="http://www.w3.org/2000/svg" xmlns:xlink="http://www.w3.org/1999/xlink" x="0px" y="0px"
	 width="612px" height="792px" viewBox="0 0 612 792" enable-background="new 0 0 612 792" xml:space="preserve">
<path d="M102.013,494.111l-85.03-49.036v-98.112l85.03-49.075l84.992,49.037v98.15L102.013,494.111z M306,494.111l-85.03-49.036
	l0.038-98.15L306,297.851l84.991,49.075v98.15L306,494.111z M407.975,670.788l-85.03-49.075l0.039-98.111l84.991-49.074
	l84.991,49.074v98.035L407.975,670.788z M203.987,670.826l-84.992-49.113v-98.111l84.992-49.036l85.03,49.036l-0.039,98.111
	L203.987,670.826z M509.949,494.111l-84.992-49.036v-98.15l85.068-49.075l84.991,49.075v98.15L509.949,494.111z M408.051,317.511
	l-85.029-49.074v-98.15l85.029-49.075l84.992,49.037v98.188L408.051,317.511z M203.987,317.473l-84.992-49.075v-98.149
	l84.992-49.075l85.03,49.075v98.149L203.987,317.473z"/>
</svg>
