<svg version="1.1" id="Layer_1" xmlns="http://www.w3.org/2000/svg" xmlns:xlink="http://www.w3.org/1999/xlink" x="0px" y="0px"
	 width="24px" height="24px" viewBox="0 0 24 24" enable-background="new 0 0 24 24" xml:space="preserve">
<path d="M7.8,2h8.4C19.4,2,22,4.6,22,7.8v8.4c0,3.203-2.597,5.8-5.8,5.8H7.8C4.6,22,2,19.4,2,16.2V7.8C2,4.597,4.597,2,7.8,2 M7.6,4
	C5.612,4,4,5.612,4,7.6l0,0v8.8c0,1.99,1.61,3.6,3.6,3.6h8.8c1.988,0,3.6-1.611,3.6-3.6l0,0V7.6C20,5.61,18.391,4,16.4,4H7.6
	 M17.25,5.5c0.69,0,1.25,0.56,1.25,1.25S17.94,8,17.25,8S16,7.44,16,6.75S16.56,5.5,17.25,5.5 M12,7c2.762,0,5,2.239,5,5
	c0,2.762-2.238,5-5,5c-2.761,0-5-2.238-5-5C7,9.239,9.239,7,12,7 M12,9c-1.657,0-3,1.343-3,3c0,1.656,1.343,3,3,3
	c1.656,0,3-1.344,3-3C15,10.343,13.656,9,12,9z"/>
</svg>
