<svg version="1.1" id="Layer_1" xmlns="http://www.w3.org/2000/svg" width="24px" height="24px" viewBox="0 0 24 24" enable-background="new 0 0 24 24" xml:space="preserve">
<path d="M16.646,3.105L7.584,3.211C7.386,3.187,7.182,3.235,7,3.34C6.819,3.445,6.675,3.597,6.597,3.781l-4.622,7.795c-0.192,0.308-0.209,0.698-0.019,1.026l4.5,7.795c0.19,0.329,0.537,0.51,0.899,0.497l9.062-0.105c0.197,0.023,0.4-0.023,0.582-0.129c0.182-0.104,0.326-0.258,0.404-0.44l4.621-7.796c0.193-0.307,0.209-0.697,0.02-1.026l-4.5-7.794C17.354,3.274,17.007,3.094,16.646,3.105z M18.75,10.736l-6.751,4.217L5.25,10.736V9.047l6.749,4.218l6.751-4.218V10.736z"/>
</svg>
