<?xml version="1.0" standalone="no"?>
<!DOCTYPE svg PUBLIC "-//W3C//DTD SVG 1.1//EN" "http://www.w3.org/Graphics/SVG/1.1/DTD/svg11.dtd" >
<svg width="1034px" height="1034px" viewBox="-10 -5 1034 1034" xmlns="http://www.w3.org/2000/svg" xmlns:xlink="http://www.w3.org/1999/xlink" version="1.1">
   <path d="m 506.04377,73.214746 q -88.92937,0.962528 -158.73415,10.58781 -77.45461,10.5878 -122.39741,31.763414 l -13.38722,7.70022 q -15.29968,9.62527 -30.59935,24.06319 -21.03706,20.21308 -36.33674,45.2388 -20.08082,31.76342 -30.59935,70.26453 -13.38722,45.2388 -13.38722,99.14036 v 35.61352 q 0,74.11464 0.95623,114.5408 2.86869,108.76564 17.21214,180.95522 18.16836,91.44013 59.28625,148.22927 47.81149,64.48936 128.13479,85.66497 104.22905,27.9133 200.80826,23.10066 43.98658,-2.88758 84.14822,-11.55033 28.68689,-6.73769 52.59264,-16.36297 l 18.16836,-7.70022 -3.82492,-72.18958 -21.03705,5.77516 q -26.77444,5.77517 -54.5051,9.62528 -39.20542,5.77517 -74.58592,3.85011 -50.68018,-0.96253 -76.49838,-6.73769 -41.11789,-7.70022 -64.0674,-28.87583 -27.73067,-24.0632 -33.46805,-69.302 -1.91246,-13.47539 -1.91246,-27.91331 l 23.90575,5.77517 q 29.64312,5.77517 62.15494,9.62528 45.89903,6.73769 88.92937,8.66275 40.16165,1.92505 87.97314,-1.92506 30.59935,-1.92505 84.14822,-8.66275 53.54888,-6.73769 102.31659,-28.87583 46.85527,-22.13814 77.93273,-52.45776 31.07746,-30.31963 36.81484,-61.12051 8.60608,-43.31375 12.43099,-104.91553 3.82492,-44.27627 4.78115,-93.36519 v -39.46363 q 0,-53.90156 -13.38722,-99.14036 Q 889.49193,224.3316 869.4111,192.56818 854.11141,167.54246 833.07437,147.32938 818.73091,132.89146 802.475,123.26619 791.00026,115.56597 789.0878,115.56597 745.10122,94.390356 667.64661,83.802556 596.8856,74.177274 508.91246,73.214746 Z M 379.82143,222.40654 q 69.80478,0 104.22905,53.90156 L 507,313.84668 529.94952,276.3081 q 34.42426,-53.90156 104.22904,-53.90156 60.24248,0 96.57921,41.3887 36.33673,41.38869 36.33673,112.61574 V 606.45511 H 676.25267 V 383.14868 q 0,-71.22706 -58.33001,-71.22706 -65.97985,0 -65.97985,84.70244 V 518.86509 H 462.0572 V 396.62406 q 0,-84.70244 -65.97985,-84.70244 -58.33003,0 -58.33003,71.22706 V 606.45511 H 246.90549 V 376.41098 q 0,-71.22705 36.33673,-112.61574 36.33674,-41.3887 96.57921,-41.3887 z" />
</svg>
