<?xml version="1.0" encoding="utf-8"?>
<!-- Generator: Adobe Illustrator 16.0.0, SVG Export Plug-In . SVG Version: 6.00 Build 0)  -->
<!DOCTYPE svg PUBLIC "-//W3C//DTD SVG 1.1//EN" "http://www.w3.org/Graphics/SVG/1.1/DTD/svg11.dtd">
<svg version="1.1" xmlns="http://www.w3.org/2000/svg" xmlns:xlink="http://www.w3.org/1999/xlink" x="0px" y="0px"
	 width="140px" height="140px" viewBox="0 0 140 140" enable-background="new 0 0 140 140" xml:space="preserve">
<path d="M73.971,27.684c0,2.104-1.111,3.938-2.799,4.923v5.218l0.181,0.024l8.172,1.075c0.022,0,0.045,0,0.064,0.004l-0.018-0.053
	c0.018,0,0.029,0,0.038,0.004c0.014,0.003,0.024,0.016,0.049,0.04c1.422,0.717,15.5,13.115,15.5,31.467
	c0,17.816-5.575,21.322-8.064,22.886l-0.005,0.003c-0.31,0.195-0.571,0.361-0.768,0.52c-0.268,0.179-0.623,0.179-0.846-0.045
	l-0.168-0.165l-0.042-0.042c-1.339-1.322-4.518-4.457-11.114-5.388c-0.931-0.135-1.865-0.225-2.799-0.313l-0.181-0.013v12.948
	h15.636c3.777,0,6.887-2.686,7.639-6.222c0.045-0.269,0.313-0.492,0.625-0.492c7.597,0,15.099-1.716,21.942-5.021l1.373-0.663
	c0.488-0.246,1.063-0.175,1.491,0.128c0.388,0.279,0.685,0.735,0.685,1.216c0,0.536-0.313,1.074-0.846,1.343
	c-6.257,3.026-10.156,9.236-12.449,15.796c-1.037,2.971-2.372,5.799-3.966,8.453c-1.034,1.725-3.024,2.818-4.857,1.979l-2.844-1.255
	c-2.13-0.939-4.439-0.939-6.571,0l-2.842,1.255c-2.132,0.939-4.442,0.939-6.573,0l-2.842-1.255c-2.132-0.939-4.439-0.939-6.572,0
	l-2.844,1.255c-2.13,0.939-4.439,0.939-6.572,0l-2.842-1.255c-2.132-0.939-4.441-0.939-6.573,0l-2.842,1.255
	c-2.131,0.939-4.485,0.939-6.573,0l-2.842-1.255c-2.131-0.939-4.485-0.939-6.573,0l-2.62,1.166
	c-1.243,0.547-2.648-0.074-3.385-1.215c-4.547-7.056-7.097-15.375-7.097-24.299c0-0.626,0-1.254,0.045-1.88
	c0-0.357,0.31-0.626,0.621-0.626h24.071c0.355,0,0.621,0.269,0.621,0.626V92.9c0,4.342,3.509,7.878,7.817,7.878h12.917V87.76
	c-2.937,0.14-5.353,0.489-6.789,0.708c-0.25,0.042-0.462-0.073-0.598-0.236l-0.025,0.018c-0.133-0.18-0.177-0.403-0.043-0.627
	c1.111-2.373,3.287-8.862,2.887-22.872c-0.445-15.174-5.73-25.021-7.772-28.244c-0.312-0.447,0.088-1.029,0.621-0.984l11.719,1.544
	v-4.485c-1.663-0.991-2.752-2.813-2.752-4.897c0-3.134,2.531-5.684,5.64-5.684S73.971,24.55,73.971,27.684z M54.167,83.451V58.833
	c0-0.224-0.134-0.493-0.354-0.583l-11.148-5.236c-0.311-0.134-0.71,0-0.843,0.358L30.275,83.182
	c-0.178,0.448,0.133,0.896,0.577,0.896h22.693C53.902,84.077,54.167,83.81,54.167,83.451z"/>
</svg>
