<?xml version="1.0" encoding="utf-8"?>
<!-- Generator: Adobe Illustrator 16.0.0, SVG Export Plug-In . SVG Version: 6.00 Build 0)  -->
<!DOCTYPE svg PUBLIC "-//W3C//DTD SVG 1.1//EN" "http://www.w3.org/Graphics/SVG/1.1/DTD/svg11.dtd">
<svg version="1.1" id="Layer_1" xmlns="http://www.w3.org/2000/svg" xmlns:xlink="http://www.w3.org/1999/xlink" x="0px" y="0px"
	 width="12px" height="12px" viewBox="0 0 12 12" enable-background="new 0 0 12 12" xml:space="preserve">
<path d="M9.6,1.5H2.4C1.905,1.5,1.5,1.906,1.5,2.401V9.6c0,0.494,0.404,0.9,0.899,0.9h7.2c0.496,0,0.9-0.406,0.9-0.9V2.401
	C10.5,1.906,10.096,1.5,9.6,1.5z M8.699,6.959v0.959H7.146c0,0,0-0.496,0-0.912S6.695,6.617,6.695,6.617H4.853v1.301H3.299V4.083
	c0,0,2.574,0,3.691,0c1.115,0,1.633,0.324,1.648,1.051c0.016,0.728-0.643,0.854-0.643,0.854C8.762,6.27,8.699,6.959,8.699,6.959z"/>
<path d="M4.902,5.813v0.375h1.87c0,0,0.329,0.052,0.325-0.188C7.096,5.762,6.772,5.813,6.772,5.813H4.902z"/>
</svg>
