<?xml version="1.0" encoding="utf-8"?>
<!-- Generator: Adobe Illustrator 16.0.0, SVG Export Plug-In . SVG Version: 6.00 Build 0)  -->
<!DOCTYPE svg PUBLIC "-//W3C//DTD SVG 1.1//EN" "http://www.w3.org/Graphics/SVG/1.1/DTD/svg11.dtd">
<svg version="1.1" id="Layer_1" xmlns="http://www.w3.org/2000/svg" xmlns:xlink="http://www.w3.org/1999/xlink" x="0px" y="0px"
	 width="12px" height="12px" viewBox="-427 434.5 12 12" enable-background="new -427 434.5 12 12" xml:space="preserve">
<path d="M-417.4,436h-7.2c-0.495,0-0.9,0.405-0.9,0.9v7.199c0,0.495,0.405,0.9,0.9,0.9h7.2c0.495,0,0.9-0.405,0.9-0.9V436.9
	C-416.5,436.405-416.905,436-417.4,436z M-418.3,441.459v0.959h-1.554c0,0,0-0.496,0-0.912s-0.45-0.389-0.45-0.389h-1.843v1.301
	h-1.554v-3.836c0,0,2.575,0,3.691,0s1.634,0.324,1.649,1.051s-0.643,0.854-0.643,0.854C-418.238,440.77-418.3,441.459-418.3,441.459
	z"/>
<path d="M-422.146,439.706v0.375h1.87c0,0,0.329,0.052,0.326-0.187s-0.326-0.188-0.326-0.188H-422.146z"/>
</svg>
