<svg version="1.1" id="Layer_1" xmlns="http://www.w3.org/2000/svg" x="0px" y="0px" width="24px" height="24px" viewBox="0 0 24 24" enable-background="new 0 0 24 24" xml:space="preserve">
<g>
  <path d="M5.438,19.104c-0.421,0-1.021-0.069-1.802-0.209c-0.782-0.136-1.332-0.204-1.645-0.204
    c-0.697-0.013-1.274,0.11-1.734,0.375v-5.439h0.04c0.224,0.511,0.426,0.948,0.611,1.311c0.183,0.361,0.445,0.807,0.788,1.34
    c0.342,0.53,0.689,0.963,1.044,1.291c0.354,0.329,0.788,0.616,1.3,0.867c0.513,0.248,1.052,0.374,1.616,0.374
    c0.774,0,1.392-0.209,1.852-0.631c0.46-0.421,0.69-1.02,0.69-1.795c0-0.288-0.072-0.552-0.217-0.796
    c-0.144-0.244-0.324-0.456-0.541-0.639c-0.217-0.186-0.526-0.377-0.927-0.57c-0.4-0.199-0.781-0.367-1.144-0.504
    c-0.361-0.139-0.838-0.313-1.428-0.522c-1.484-0.498-2.512-1.078-3.083-1.735C0.286,10.958,0,10.131,0,9.133
    c0-0.724,0.145-1.37,0.433-1.941c0.289-0.572,0.67-1.016,1.143-1.331C2.05,5.546,2.551,5.308,3.083,5.143
    c0.532-0.164,1.068-0.247,1.605-0.247c0.591,0,1.251,0.049,1.98,0.148c0.729,0.098,1.265,0.147,1.606,0.147
    c0.302,0,0.598-0.031,0.887-0.098l0.256,4.651H9.38C8.578,8.206,7.789,7.065,7.015,6.315S5.392,5.191,4.473,5.191
    c-0.748,0-1.375,0.214-1.882,0.641C2.086,6.258,1.833,6.854,1.833,7.616c0,0.668,0.278,1.189,0.838,1.556
    C3.229,9.54,4.256,10,5.754,10.551c1.446,0.5,2.522,1.068,3.232,1.705c0.709,0.636,1.063,1.501,1.063,2.59
    c0,0.775-0.145,1.453-0.433,2.03c-0.29,0.577-0.67,1.021-1.144,1.33C8,18.516,7.511,18.741,7.006,18.887
    C6.5,19.031,5.977,19.104,5.438,19.104z"/>
  <path d="M21.575,15.853c1.078,1.705,1.886,2.705,2.425,2.993v0.041h-4.116l-2.702-4.592c-0.615-1.168-1.005-1.833-1.161-1.991
    c-0.17-0.17-0.375-0.268-0.611-0.295v4.475c0,0.524,0.131,0.999,0.392,1.419c0.265,0.419,0.618,0.734,1.065,0.943v0.041h-6.028
    v-0.041c0.459-0.209,0.821-0.524,1.084-0.943c0.261-0.42,0.394-0.894,0.394-1.419V7.498c0-0.526-0.132-1-0.394-1.421
    c-0.263-0.419-0.625-0.735-1.084-0.944v-0.04h7.014c1.117,0,2.105,0.325,2.967,0.977c0.86,0.65,1.291,1.56,1.291,2.729
    c0,0.775-0.26,1.434-0.778,1.98c-0.52,0.545-1.266,0.923-2.238,1.133L21.575,15.853z M15.764,5.369h-0.354v6.404
    c0.303,0.052,0.662,0.079,1.083,0.079c0.697,0,1.277-0.229,1.744-0.69c0.467-0.46,0.701-1.176,0.701-2.149
    c0-1.038-0.309-1.904-0.927-2.601C17.393,5.718,16.644,5.369,15.764,5.369z"/>
</g>
</svg>
