<?xml version="1.0" encoding="utf-8"?>
<!-- Generator: Adobe Illustrator 16.0.0, SVG Export Plug-In . SVG Version: 6.00 Build 0)  -->
<!DOCTYPE svg PUBLIC "-//W3C//DTD SVG 1.1//EN" "http://www.w3.org/Graphics/SVG/1.1/DTD/svg11.dtd">
<svg version="1.1" id="Capa_1" xmlns="http://www.w3.org/2000/svg" xmlns:xlink="http://www.w3.org/1999/xlink" x="0px" y="0px"
	 width="510px" height="510px" viewBox="0 0 510 510" enable-background="new 0 0 510 510" xml:space="preserve">
<g>
	<g id="post-tumblr">
		<path d="M415,55H95c-22,0-40,18-40,40v320c0,22,18,40,40,40h320c22,0,40-18,40-40V95C455,73,437,55,415,55z M335,235h-60
			c0,0,0,76.001,0,78c0,14,2,22,22,22c18,0,38.001,0,38.001,0v60.001c0,0-20.001,2-41.998,2c-52.002,0-78.002-32.001-78.002-68
			c0-24,0-94,0-94h-40v-56c48-4,52-40,55.999-64.001h44v60h60V235z"/>
	</g>
</g>
</svg>
