<svg version="1.1" id="youtube" xmlns="http://www.w3.org/2000/svg" x="0px" y="0px"
	 width="24px" height="24px" viewBox="0 0 24 24" enable-background="new 0 0 24 24" xml:space="preserve">
<path d="M9.8,15.3l5.708-3.3L9.8,8.7V15.3 M22.517,6.687c0.142,0.517,0.241,1.21,0.307,2.09c0.078,0.88,0.11,1.639,0.11,2.299L23,12
	c0,2.408-0.177,4.18-0.483,5.313c-0.274,0.991-0.913,1.629-1.903,1.904c-0.519,0.142-1.464,0.242-2.915,0.308
	c-1.43,0.076-2.739,0.108-3.949,0.108L12,19.7c-4.609,0-7.479-0.176-8.613-0.483c-0.99-0.275-1.628-0.913-1.903-1.904
	c-0.143-0.517-0.242-1.209-0.308-2.09c-0.077-0.88-0.11-1.639-0.11-2.299L1,12c0-2.409,0.176-4.18,0.484-5.313
	c0.275-0.99,0.913-1.628,1.903-1.903C3.904,4.641,4.85,4.542,6.302,4.476c1.431-0.077,2.739-0.11,3.95-0.11L12,4.3
	c4.608,0,7.48,0.176,8.613,0.484C21.604,5.059,22.242,5.697,22.517,6.687z"/>
</svg>
